<svg version="1.2" xmlns="http://www.w3.org/2000/svg" viewBox="0 0 59 59" width="59" height="59"><defs><linearGradient id="P" gradientUnits="userSpaceOnUse"/><linearGradient id="g1" x1="88.1" y1="29.4" x2="29.6" y2="87.9" href="#P"><stop stop-color="#1bb260"/><stop offset="1" stop-color="#08ae69"/></linearGradient></defs><style>.a{fill:url(#g1)}.b{fill:#fff}</style><path class="a" d="m58.8 29.4c0 16.2-13.1 29.3-29.2 29.3-16.2 0-29.3-13.1-29.3-29.3 0-16.1 13.1-29.2 29.3-29.2 16.1 0 29.2 13.1 29.2 29.2z"/><path fill-rule="evenodd" class="b" d="m13.8 46l2.4-9.1c-1.4-2.5-2.1-5.3-2.1-8.1 0-9.3 7.6-16.8 16.8-16.8 9.3 0 16.8 7.5 16.8 16.8 0 9.2-7.5 16.8-16.8 16.8-2.8 0-5.5-0.8-8-2.1zm9.6-5.8l0.6 0.3c2.1 1.3 4.5 1.9 7 1.9 7.5 0 13.6-6.1 13.6-13.6 0-7.5-6.1-13.6-13.6-13.6-7.6 0-13.7 6.1-13.7 13.6 0 2.5 0.7 4.9 2 7.1l0.4 0.5-1.4 5.1z"/><path class="b" d="m37.2 31.1c-0.7-0.4-1.6-0.9-2.4-0.6-0.7 0.3-1.1 1.3-1.5 1.8q-0.3 0.4-0.7 0.1-3.6-1.4-5.5-4.6c-0.2-0.3-0.2-0.6 0.1-0.9 0.4-0.5 0.9-1 1-1.6 0.1-0.6-0.2-1.4-0.5-1.9-0.3-0.7-0.6-1.7-1.4-2.1-0.6-0.4-1.5-0.2-2 0.3-1 0.8-1.5 2.1-1.5 3.3q0 0.6 0.1 1.1c0.2 0.8 0.6 1.6 1 2.3q0.5 0.9 1.1 1.7c1.3 1.7 2.8 3.2 4.6 4.3 0.9 0.5 1.9 1 2.9 1.3 1.1 0.4 2.2 0.8 3.4 0.6 1.2-0.3 2.5-1.1 3-2.3 0.2-0.4 0.2-0.8 0.2-1.2-0.2-0.8-1.3-1.2-1.9-1.6z"/></svg>